<?xml version="1.0" encoding="utf-8"?>
<!-- Generator: Adobe Illustrator 18.1.1, SVG Export Plug-In . SVG Version: 6.00 Build 0)  -->
<svg version="1.1" id="Layer_1" xmlns="http://www.w3.org/2000/svg" xmlns:xlink="http://www.w3.org/1999/xlink" x="0px" y="0px"
	 viewBox="0 0 570 350" enable-background="new 0 0 570 350" xml:space="preserve">
<g>
	<g>
		<path fill="none" stroke="#160344" stroke-width="6.1645" stroke-linecap="round" stroke-miterlimit="10" d="M320.2,65.1
			c-0.7-10.2-6.1-19.9-15.4-25.8c-9.3-5.9-20.4-6.5-29.9-2.8"/>
		<circle fill="none" stroke="#160344" stroke-width="6.1645" stroke-miterlimit="10" cx="289.4" cy="63.8" r="10.2"/>
		<path fill="none" stroke="#160344" stroke-width="6.1645" stroke-linecap="round" stroke-miterlimit="10" d="M345,55.1
			c-3.6-14.9-12.7-28.4-26.7-37.2c-14-8.8-30.1-11.2-45.1-8"/>
		<path fill="none" stroke="#F0F0F0" stroke-width="6.1645" stroke-miterlimit="10" d="M271,95.3c-24.6-15.5-34.3-45.7-24.8-71.9
			c-4.5,3.8-8.4,8.4-11.7,13.6c-17.9,28.4-9.4,66,19,83.9s66,9.4,83.9-19c2.4-3.8,4.3-7.8,5.8-11.9C323.4,107,294.1,109.9,271,95.3z
			"/>
	</g>
	<g>
		<path fill="#F0F0F0" d="M75.1,260.6l-1.8,3.9c-2.5-1-5.4-2-8.9-2.8c-3.5-0.8-6.9-1.2-10.2-1.2c-3,0-5.8,0.4-8.2,1.2
			c-2.5,0.8-4.5,1.9-6.3,3.3c-1.7,1.4-3,3-3.9,4.9c-0.9,1.9-1.4,3.9-1.4,6c0,2.5,0.6,4.7,1.9,6.4c1.3,1.7,3,3.2,5.1,4.5
			c2.1,1.3,4.5,2.4,7.2,3.4c2.7,1,5.4,2,8.2,3c2.8,1,5.6,2.2,8.2,3.5c2.7,1.3,5,2.9,7.2,4.8c2.1,1.9,3.8,4.1,5.1,6.7
			c1.3,2.6,1.9,5.7,1.9,9.4c0,3.6-0.7,6.9-2,9.9c-1.3,2.9-3.2,5.4-5.7,7.5c-2.5,2.1-5.4,3.6-8.8,4.8c-3.4,1.1-7.2,1.7-11.4,1.7
			c-3.3,0-6.4-0.3-9.1-1c-2.7-0.6-5.2-1.4-7.3-2.3c-2.1-0.9-4-1.8-5.5-2.7c-1.5-0.9-2.8-1.6-3.6-2.1l2.4-4.4
			c1.3,0.9,2.8,1.8,4.6,2.7c1.8,0.9,3.7,1.7,5.7,2.5c2,0.8,4.2,1.4,6.4,1.8c2.2,0.5,4.4,0.7,6.7,0.7c2.5,0,5.2-0.4,7.9-1.1
			c2.7-0.8,5.2-1.9,7.4-3.4c2.2-1.5,4.1-3.5,5.5-5.9c1.4-2.4,2.1-5.3,2.1-8.6c0-3.2-0.6-5.9-1.9-8.1c-1.3-2.2-3-4.1-5.1-5.6
			c-2.1-1.5-4.5-2.9-7.2-4c-2.7-1.1-5.4-2.2-8.2-3.3c-2.8-1-5.6-2.1-8.2-3.2c-2.7-1.1-5-2.4-7.2-3.9c-2.1-1.5-3.8-3.3-5.1-5.3
			c-1.3-2.1-1.9-4.6-1.9-7.6c0-2.8,0.6-5.4,1.7-7.9c1.2-2.5,2.8-4.7,4.9-6.5c2.1-1.9,4.6-3.3,7.6-4.4c2.9-1.1,6.2-1.6,9.8-1.6
			c1.8,0,3.8,0.1,5.8,0.4c2,0.3,4,0.6,6,1.1c2,0.4,3.8,0.9,5.5,1.5C72.5,259.5,74,260,75.1,260.6z"/>
		<path fill="#F0F0F0" d="M180.6,256.4v4.8h-30.7v79.3H145v-79.3h-30.5v-4.8H180.6z"/>
		<path fill="#F0F0F0" d="M280.6,340.4c-2.1-5-4.3-10.4-6.6-16.2c-2.3-5.8-4.7-11.8-7.1-17.9h-34.1c-2.4,6.2-4.7,12.2-7,17.9
			c-2.3,5.8-4.5,11.2-6.6,16.2h-5c1.7-3.9,3.5-8.2,5.4-13c1.9-4.8,4-9.7,6.1-15c2.1-5.2,4.2-10.6,6.4-16c2.1-5.4,4.3-10.8,6.4-16
			c2.1-5.2,4.1-10.2,6.1-15c1.9-4.8,3.8-9.1,5.4-13c1.6,3.9,3.4,8.2,5.3,13c1.9,4.8,4,9.8,6.1,15c2.1,5.2,4.2,10.6,6.4,16
			c2.1,5.4,4.3,10.8,6.4,16c2.1,5.2,4.1,10.2,6.1,15c1.9,4.8,3.8,9.1,5.4,13H280.6z M248.8,266.4c-2.2,5.2-4.5,10.9-6.9,16.9
			c-2.4,6.1-4.8,12.3-7.4,18.7h30.7c-2.5-6.4-4.9-12.7-7.3-18.7c-2.4-6.1-4.7-11.7-6.9-16.9L250,263c-0.2,0.6-0.4,1.3-0.6,1.9
			C249.2,265.5,249,266,248.8,266.4z"/>
		<path fill="#F0F0F0" d="M387.2,256.4v4.8h-30.7v79.3h-4.9v-79.3h-30.5v-4.8H387.2z"/>
		<path fill="#F0F0F0" d="M424.1,256.4h4.9v84h-4.9V256.4z"/>
		<path fill="#F0F0F0" d="M544.4,335.1c-2.8,1.7-6.1,3.2-10.1,4.5c-3.9,1.2-8.4,1.8-13.3,1.8c-6.4,0-12.3-1.1-17.5-3.4
			c-5.2-2.3-9.7-5.3-13.4-9.2c-3.7-3.9-6.6-8.4-8.6-13.5c-2-5.1-3-10.6-3-16.3c0-6.2,1.1-11.9,3.4-17.2c2.3-5.3,5.4-9.9,9.3-13.8
			s8.5-7,13.7-9.2c5.2-2.2,10.8-3.3,16.7-3.3c4.3,0,8.4,0.5,12.3,1.6c3.9,1.1,7.2,2.5,10,4.3c-0.5,0.7-0.8,1.3-1.1,1.7
			c-0.2,0.4-0.7,1.2-1.3,2.2c-2.8-1.7-5.9-3-9.4-3.9c-3.5-0.9-6.9-1.3-10.3-1.3c-5.3,0-10.3,1-15,3c-4.7,2-8.8,4.8-12.2,8.3
			c-3.5,3.5-6.2,7.6-8.2,12.3c-2,4.7-3,9.7-3,15c0,5,0.9,9.8,2.7,14.3c1.8,4.6,4.3,8.6,7.6,12c3.3,3.4,7.3,6.2,11.9,8.3
			c4.6,2.1,9.8,3.1,15.4,3.1c4.4,0,8.4-0.6,12-1.7c3.7-1.1,6.7-2.5,9.1-4L544.4,335.1z"/>
	</g>
	<g>
		<path fill="#160344" d="M14,147.5c7.5,9.7,15,19.4,22.4,29.1c7.4,9.7,14.9,19.4,22.4,29.1c7.5-9.7,15-19.4,22.4-29.1
			c7.4-9.7,14.9-19.4,22.4-29.1v89.7H93.6v-57.6c0.1-0.7,0.1-1.3,0.2-2c0-0.7,0.1-1.3,0.2-2c-5.4,8-11.1,15.8-17.2,23.4
			c-6,7.6-12,15.2-17.9,22.9c-5.5-7.2-11-14.3-16.4-21.5s-11-14.3-16.4-21.5l-2.2-3.3c0.1,0.7,0.1,1.3,0.2,2c0,0.7,0.1,1.3,0.2,2
			v57.6H14V147.5z"/>
		<path fill="#160344" d="M122,151.5h10.2v85.8H122V151.5z"/>
		<path fill="#160344" d="M143.9,151.5h20c5.9,0,11.4,1,16.7,3c5.2,2,9.8,4.9,13.7,8.6c3.9,3.8,7,8.3,9.3,13.5s3.4,11.2,3.4,17.8
			c0,4.8-0.8,9.8-2.5,14.8c-1.7,5.1-4.4,9.7-8.1,13.8c-3.8,4.1-8.6,7.5-14.7,10.2c-6,2.7-13.3,4-22,4h-15.8V151.5z M154.1,161.2
			v66.3h8.6c4.8,0,9.3-0.8,13.5-2.3c4.2-1.6,7.8-3.8,10.8-6.7c3.1-2.9,5.5-6.4,7.2-10.4c1.8-4,2.6-8.6,2.6-13.7
			c0-5.1-0.9-9.6-2.6-13.7c-1.8-4.1-4.2-7.6-7.2-10.5c-3.1-2.9-6.7-5.1-10.8-6.7c-4.2-1.6-8.7-2.3-13.5-2.3H154.1z"/>
		<path fill="#160344" d="M292.8,151.5v89.7c-10.5-11.2-21-22.3-31.4-33.3c-10.4-11-20.8-22.1-31.4-33.3c-0.4-0.6-0.8-1.1-1.2-1.6
			c-0.4-0.5-0.8-1-1.2-1.6c0.1,0.7,0.1,1.3,0.2,2c0,0.7,0.1,1.3,0.2,2v62h-10.2v-89.7c10.5,11.4,21,22.8,31.4,34
			c10.4,11.2,20.8,22.6,31.4,34c0.4,0.6,0.8,1.1,1.2,1.6c0.4,0.5,0.8,1,1.2,1.6c-0.1-0.7-0.1-1.3-0.2-2c0-0.7-0.1-1.3-0.2-2v-63.4
			H292.8z"/>
		<path fill="#160344" d="M311.2,151.5h10.2v85.8h-10.2V151.5z"/>
		<path fill="#160344" d="M376.1,210.2v-9.7H393c2.4,0,3.9,0.6,4.7,1.8c0.8,1.2,1.2,3,1.2,5.6v24.3c-3.3,1.9-6.8,3.4-10.5,4.5
			c-3.7,1.1-7.7,1.7-11.8,1.7c-6.1,0-11.7-1.1-17-3.4c-5.3-2.3-10-5.4-13.9-9.4c-4-4-7.1-8.6-9.4-13.9c-2.3-5.3-3.4-11-3.4-17
			c0-6,1.1-11.7,3.4-17.1c2.3-5.4,5.4-10,9.4-14c4-4,8.6-7.1,13.9-9.4c5.3-2.3,11-3.5,17-3.5c4.2,0,8.1,0.5,11.8,1.6
			c3.7,1.1,7.2,2.6,10.6,4.5c-0.9,1.4-1.8,2.8-2.8,4.1c-1,1.3-1.9,2.7-2.8,4.1c-2.5-1.5-5.2-2.6-8-3.4c-2.8-0.8-5.7-1.2-8.8-1.2
			c-4.7,0-9,0.9-13.1,2.7c-4,1.8-7.6,4.3-10.7,7.4c-3.1,3.1-5.5,6.8-7.2,11c-1.8,4.2-2.6,8.6-2.6,13.2c0,4.7,0.9,9.1,2.6,13.2
			c1.8,4.2,4.2,7.8,7.2,10.8c3.1,3.1,6.6,5.5,10.7,7.3c4,1.8,8.4,2.7,13.1,2.7c4.2,0,8.3-0.7,12.1-2.2v-12.5c0-1.4-0.1-2.3-0.4-2.9
			c-0.3-0.5-1.1-0.8-2.4-0.8H376.1z"/>
		<path fill="#160344" d="M412.2,237.3v-85.8h10.2v37.8h46.3v-37.8h10.2v85.8h-10.2v-38.4h-46.3v38.4H412.2z"/>
		<path fill="#160344" d="M556,151.5v9.7h-28.7v76.1h-10.2v-76.1h-28.9v-9.7H556z"/>
	</g>
</g>
</svg>
